<?xml version="1.0" encoding="iso-8859-1"?>
<!-- Generator: Adobe Illustrator 19.0.0, SVG Export Plug-In . SVG Version: 6.00 Build 0)  -->
<svg version="1.1" id="Layer_1" xmlns="http://www.w3.org/2000/svg" xmlns:xlink="http://www.w3.org/1999/xlink" x="0px" y="0px"
	 viewBox="0 0 512.001 512.001" style="enable-background:new 0 0 512.001 512.001;" xml:space="preserve">
<path style="fill:#FFB655;" d="M463.412,199.921c-3.755-8.36-12.065-13.739-21.231-13.739H301.323l39.315-157.264
	c2.6-10.395-2.234-21.222-11.711-26.225c-9.47-5.002-21.141-2.89-28.261,5.118L256,58.062L52.426,287.084
	c-6.09,6.848-7.592,16.635-3.837,24.995s12.065,13.739,21.231,13.739h140.859l-39.315,157.264
	c-2.6,10.395,2.234,21.222,11.711,26.225c3.438,1.815,7.163,2.693,10.857,2.693c6.485,0,12.868-2.709,17.403-7.812l44.666-50.25
	l203.575-229.022C465.665,218.066,467.167,208.281,463.412,199.921z"/>
<path style="fill:#EE8700;" d="M69.82,325.819h140.859l-39.315,157.264c-2.6,10.395,2.234,21.222,11.711,26.225
	c3.438,1.815,7.163,2.693,10.857,2.693c6.485,0,12.868-2.709,17.403-7.812l44.666-50.25V58.062L52.426,287.084
	c-6.09,6.85-7.592,16.635-3.837,24.995C52.344,320.44,60.654,325.819,69.82,325.819z"/>
<g>
</g>
<g>
</g>
<g>
</g>
<g>
</g>
<g>
</g>
<g>
</g>
<g>
</g>
<g>
</g>
<g>
</g>
<g>
</g>
<g>
</g>
<g>
</g>
<g>
</g>
<g>
</g>
<g>
</g>
</svg>
