<?xml version="1.0" encoding="iso-8859-1"?>
<!-- Generator: Adobe Illustrator 19.0.0, SVG Export Plug-In . SVG Version: 6.00 Build 0)  -->
<svg version="1.1" id="Layer_1" xmlns="http://www.w3.org/2000/svg" xmlns:xlink="http://www.w3.org/1999/xlink" x="0px" y="0px"
	 viewBox="0 0 441.108 441.108" style="enable-background:new 0 0 441.108 441.108;" xml:space="preserve">
<path style="fill:#D60949;" d="M441.108,417.477c0,13.044-10.587,23.631-23.631,23.631H23.631C10.587,441.108,0,430.521,0,417.477
	V23.631C0,10.571,10.587,0,23.631,0h393.846c13.044,0,23.631,10.571,23.631,23.631V417.477z"/>
<path style="fill:#B70243;" d="M0,23.631C0,10.571,10.587,0,23.631,0h393.846c13.044,0,23.631,10.571,23.631,23.631v393.846
	c0,13.044-10.587,23.631-23.631,23.631"/>
<polygon style="fill:#FFD31A;" points="314.415,99.769 230.4,99.769 126.692,252.062 187.479,252.062 126.692,341.323 
	210.708,341.323 314.415,189.046 253.629,189.046 "/>
<polygon style="fill:#FF9E1D;" points="230.4,99.769 167.904,191.535 254.054,277.677 314.415,189.046 253.629,189.046 
	314.415,99.769 "/>
<g>
</g>
<g>
</g>
<g>
</g>
<g>
</g>
<g>
</g>
<g>
</g>
<g>
</g>
<g>
</g>
<g>
</g>
<g>
</g>
<g>
</g>
<g>
</g>
<g>
</g>
<g>
</g>
<g>
</g>
</svg>
